<mxfile host="app.diagrams.net" modified="2024-05-15T13:00:33.607Z" agent="Mozilla/5.0 (Windows NT 10.0; Win64; x64) AppleWebKit/537.36 (KHTML, like Gecko) Chrome/124.0.0.0 Safari/537.36" version="24.4.0" etag="l-A5VEoD5NN_WOvl44o8" type="github">
  <diagram name="Page-1" id="qrEkZ5_EuHfsybx1DGld">
    <mxGraphModel>
      <root>
        <mxCell id="0" />
        <mxCell id="1" parent="0" />
        <mxCell id="2" value="SAP System" style="ellipse;aspect=fixed;strokeWidth=2;whiteSpace=wrap;" vertex="1" parent="1">
          <mxGeometry width="96" height="96" as="geometry" />
        </mxCell>
        <mxCell id="3" value="Cloud" style="ellipse;aspect=fixed;strokeWidth=2;whiteSpace=wrap;" vertex="1" parent="1">
          <mxGeometry x="20" y="146" width="56" height="56" as="geometry" />
        </mxCell>
        <mxCell id="4" value="" style="curved=1;startArrow=none;endArrow=block;exitX=0.5;exitY=1;entryX=0.5;entryY=0;" edge="1" parent="1" source="2" target="3">
          <mxGeometry relative="1" as="geometry">
            <Array as="points" />
          </mxGeometry>
        </mxCell>
      </root>
    </mxGraphModel>
  </diagram>
</mxfile>
